<?xml version="1.0" encoding="iso-8859-1"?>
<!-- Uploaded to: SVG Repo, www.svgrepo.com, Generator: SVG Repo Mixer Tools -->
<!DOCTYPE svg PUBLIC "-//W3C//DTD SVG 1.1//EN" "http://www.w3.org/Graphics/SVG/1.1/DTD/svg11.dtd">
<svg fill="#000000" version="1.1" id="Capa_1" xmlns="http://www.w3.org/2000/svg" xmlns:xlink="http://www.w3.org/1999/xlink" 
	 width="800px" height="800px" viewBox="0 0 125.015 125.015"
	 xml:space="preserve">
<g>
	<path d="M117.183,0c-2.883,0-5.221,2.337-5.221,5.22v3.183L44.446,25.955c-2.553-3.141-6.443-5.15-10.807-5.15
		c-4.889,0-9.182,2.524-11.666,6.335c-7.166,0.379-12.866,6.293-12.866,13.556v15.251c0,6.774,4.963,12.375,11.448,13.407
		L3.339,111.525c-2.043,5,0.356,10.709,5.357,12.752c5.001,2.041,20.335,1.266,19.267-21.319c-0.334-7.075,3.886-9.517,3.886-9.517
		s7.599-3.699,4.636-11.354c-0.923-2.383-0.729-4.605-0.026-6.537c3.202-0.659,6-2.419,7.988-4.863l67.517,17.551v4.259
		c0,2.884,2.338,5.221,5.222,5.221c2.882,0,5.22-2.336,5.22-5.221V5.22C122.403,2.337,120.066,0,117.183,0z"/>
</g>
</svg>