<!DOCTYPE svg PUBLIC "-//W3C//DTD SVG 1.1//EN" "http://www.w3.org/Graphics/SVG/1.1/DTD/svg11.dtd">
<!-- Uploaded to: SVG Repo, www.svgrepo.com, Transformed by: SVG Repo Mixer Tools -->
<svg fill="#000000" version="1.1" id="Capa_1" xmlns="http://www.w3.org/2000/svg" xmlns:xlink="http://www.w3.org/1999/xlink" width="800px" height="800px" viewBox="-12.53 -12.53 150.31 150.31" xml:space="preserve" stroke="#000000" stroke-width="0.00125251">
<g id="SVGRepo_bgCarrier" stroke-width="0"/>
<g id="SVGRepo_tracerCarrier" stroke-linecap="round" stroke-linejoin="round"/>
<g id="SVGRepo_iconCarrier"> <g> <path d="M104.708,0v3.525c-1.194-0.21-2.45-0.419-3.444-0.564C73.726-1.116,49.285,6.718,30.579,21.152 C10.06,36.983,2.562,67.518,2.449,68.55c-0.229,2.085,0.205,4.083,1.123,5.8c-2.034,4.918,0.104,10.604,4.97,12.895 c1.379,0.65,2.833,0.958,4.264,0.958c1.408,0,2.796-0.298,4.071-0.861v37.91h55.206v-1.116v-13.27V73.32 c3.964-0.206,7.591-2.756,8.962-6.74c2.327-6.742,16.788-18.639,23.664-28.289l18.153-0.005V0H104.708z M57.669,44.103 c12.359,1.896,7.553,8.276,4.962,14.471H34.285C40.365,49.972,48.377,42.672,57.669,44.103z M66.346,119.516H22.611V80.68 c1.24-3.064,3.998-9.617,7.979-16.371h31.001c0.313,3.09,2.036,5.924,4.754,7.57L66.346,119.516L66.346,119.516z M119.089,34.515 h-10.609V3.771h10.609V34.515z"/> </g> </g>
</svg>